<svg xmlns="http://www.w3.org/2000/svg" width="289" height="148.047" viewBox="0 0 289 148.047">
  <defs>
    <style>
      .cls-1 {
        opacity: 0.35;
      }

      .cls-2 {
        fill: #707070;
      }
    </style>
  </defs>
  <g id="Dot" transform="translate(-106.092 -192.834)">
    <g id="Group_3" data-name="Group 3" transform="translate(-67 -14.533)">
      <g id="Group_1" data-name="Group 1" class="cls-1" transform="translate(-456.414 175.435)">
        <path id="Path_57" data-name="Path 57" class="cls-2" d="M1337.5-304.342a5.46,5.46,0,0,1-5.619,5.279,5.457,5.457,0,0,1-5.666-5.227,5.46,5.46,0,0,1,5.619-5.28A5.458,5.458,0,0,1,1337.5-304.342Z" transform="translate(-696.709 342.415)"/>
        <path id="Path_58" data-name="Path 58" class="cls-2" d="M1386.65-304.565a5.46,5.46,0,0,1-5.619,5.28,5.458,5.458,0,0,1-5.666-5.228,5.46,5.46,0,0,1,5.619-5.28A5.458,5.458,0,0,1,1386.65-304.565Z" transform="translate(-718.465 342.507)"/>
        <path id="Path_59" data-name="Path 59" class="cls-2" d="M1435.8-304.787a5.46,5.46,0,0,1-5.619,5.28,5.458,5.458,0,0,1-5.666-5.228,5.459,5.459,0,0,1,5.619-5.279A5.457,5.457,0,0,1,1435.8-304.787Z" transform="translate(-740.22 342.599)"/>
        <path id="Path_60" data-name="Path 60" class="cls-2" d="M1484.948-305.01a5.46,5.46,0,0,1-5.619,5.28,5.458,5.458,0,0,1-5.666-5.227,5.459,5.459,0,0,1,5.619-5.279A5.457,5.457,0,0,1,1484.948-305.01Z" transform="translate(-765.339 342.691)"/>
        <path id="Path_61" data-name="Path 61" class="cls-2" d="M1534.1-305.233a5.46,5.46,0,0,1-5.619,5.28,5.457,5.457,0,0,1-5.666-5.227,5.46,5.46,0,0,1,5.619-5.28A5.457,5.457,0,0,1,1534.1-305.233Z" transform="translate(-786.276 342.784)"/>
        <path id="Path_62" data-name="Path 62" class="cls-2" d="M1583.246-305.456a5.459,5.459,0,0,1-5.619,5.279,5.457,5.457,0,0,1-5.666-5.227,5.46,5.46,0,0,1,5.619-5.28A5.457,5.457,0,0,1,1583.246-305.456Z" transform="translate(-807.213 342.876)"/>
        <path id="Path_63" data-name="Path 63" class="cls-2" d="M1632.4-305.679a5.459,5.459,0,0,1-5.619,5.279,5.457,5.457,0,0,1-5.666-5.227,5.461,5.461,0,0,1,5.62-5.28A5.457,5.457,0,0,1,1632.4-305.679Z" transform="translate(-828.149 342.969)"/>
        <path id="Path_64" data-name="Path 64" class="cls-2" d="M1681.544-305.9a5.46,5.46,0,0,1-5.619,5.28,5.458,5.458,0,0,1-5.666-5.227,5.461,5.461,0,0,1,5.62-5.28A5.457,5.457,0,0,1,1681.544-305.9Z" transform="translate(-849.085 343.061)"/>
        <path id="Path_78" data-name="Path 78" class="cls-2" d="M1337.691-262.472a5.46,5.46,0,0,1-5.619,5.28,5.457,5.457,0,0,1-5.666-5.228,5.459,5.459,0,0,1,5.619-5.279A5.457,5.457,0,0,1,1337.691-262.472Z" transform="translate(-696.794 325.06)"/>
        <path id="Path_79" data-name="Path 79" class="cls-2" d="M1386.84-262.7a5.459,5.459,0,0,1-5.619,5.28,5.457,5.457,0,0,1-5.666-5.227,5.46,5.46,0,0,1,5.619-5.28A5.457,5.457,0,0,1,1386.84-262.7Z" transform="translate(-718.549 325.153)"/>
        <path id="Path_80" data-name="Path 80" class="cls-2" d="M1435.989-262.918a5.46,5.46,0,0,1-5.62,5.279,5.456,5.456,0,0,1-5.665-5.227,5.46,5.46,0,0,1,5.619-5.28A5.457,5.457,0,0,1,1435.989-262.918Z" transform="translate(-740.304 325.245)"/>
        <path id="Path_81" data-name="Path 81" class="cls-2" d="M1485.138-263.141a5.46,5.46,0,0,1-5.619,5.279,5.457,5.457,0,0,1-5.666-5.227,5.46,5.46,0,0,1,5.619-5.28A5.458,5.458,0,0,1,1485.138-263.141Z" transform="translate(-765.421 325.337)"/>
        <path id="Path_82" data-name="Path 82" class="cls-2" d="M1534.287-263.364a5.46,5.46,0,0,1-5.619,5.28,5.458,5.458,0,0,1-5.666-5.228,5.46,5.46,0,0,1,5.619-5.28A5.458,5.458,0,0,1,1534.287-263.364Z" transform="translate(-786.357 325.43)"/>
        <path id="Path_83" data-name="Path 83" class="cls-2" d="M1583.436-263.586a5.46,5.46,0,0,1-5.619,5.28,5.458,5.458,0,0,1-5.666-5.227,5.459,5.459,0,0,1,5.619-5.279A5.457,5.457,0,0,1,1583.436-263.586Z" transform="translate(-807.293 325.522)"/>
        <path id="Path_84" data-name="Path 84" class="cls-2" d="M1632.585-263.809a5.46,5.46,0,0,1-5.619,5.28,5.458,5.458,0,0,1-5.666-5.227,5.46,5.46,0,0,1,5.619-5.279A5.457,5.457,0,0,1,1632.585-263.809Z" transform="translate(-828.23 325.614)"/>
        <path id="Path_85" data-name="Path 85" class="cls-2" d="M1681.734-264.032a5.46,5.46,0,0,1-5.619,5.28,5.457,5.457,0,0,1-5.666-5.227,5.46,5.46,0,0,1,5.619-5.28A5.457,5.457,0,0,1,1681.734-264.032Z" transform="translate(-849.166 325.707)"/>
        <path id="Path_101" data-name="Path 101" class="cls-2" d="M1337.881-220.6a5.459,5.459,0,0,1-5.619,5.279,5.456,5.456,0,0,1-5.666-5.227,5.46,5.46,0,0,1,5.619-5.28A5.457,5.457,0,0,1,1337.881-220.6Z" transform="translate(-696.878 307.706)"/>
        <path id="Path_102" data-name="Path 102" class="cls-2" d="M1387.03-220.826a5.46,5.46,0,0,1-5.619,5.28,5.457,5.457,0,0,1-5.666-5.227,5.46,5.46,0,0,1,5.619-5.28A5.457,5.457,0,0,1,1387.03-220.826Z" transform="translate(-718.633 307.799)"/>
        <path id="Path_103" data-name="Path 103" class="cls-2" d="M1436.179-221.048a5.46,5.46,0,0,1-5.619,5.28,5.457,5.457,0,0,1-5.666-5.227,5.459,5.459,0,0,1,5.619-5.279A5.456,5.456,0,0,1,1436.179-221.048Z" transform="translate(-740.388 307.891)"/>
        <path id="Path_104" data-name="Path 104" class="cls-2" d="M1485.328-221.271a5.461,5.461,0,0,1-5.62,5.28,5.457,5.457,0,0,1-5.665-5.227,5.459,5.459,0,0,1,5.619-5.279A5.457,5.457,0,0,1,1485.328-221.271Z" transform="translate(-765.502 307.983)"/>
        <ellipse id="Ellipse_23" data-name="Ellipse 23" class="cls-2" cx="5.642" cy="5.253" rx="5.642" ry="5.253" transform="translate(736.731 81.381) rotate(-0.261)"/>
        <path id="Path_105" data-name="Path 105" class="cls-2" d="M1583.626-221.717a5.46,5.46,0,0,1-5.62,5.279,5.457,5.457,0,0,1-5.666-5.227,5.46,5.46,0,0,1,5.619-5.28A5.458,5.458,0,0,1,1583.626-221.717Z" transform="translate(-807.374 308.168)"/>
        <path id="Path_106" data-name="Path 106" class="cls-2" d="M1632.775-221.94a5.46,5.46,0,0,1-5.619,5.279,5.457,5.457,0,0,1-5.666-5.227,5.46,5.46,0,0,1,5.619-5.28A5.458,5.458,0,0,1,1632.775-221.94Z" transform="translate(-828.311 308.26)"/>
        <ellipse id="Ellipse_24" data-name="Ellipse 24" class="cls-2" cx="5.642" cy="5.253" rx="5.642" ry="5.253" transform="matrix(1, -0.005, 0.005, 1, 821.368, 80.989)"/>
        <path id="Path_122" data-name="Path 122" class="cls-2" d="M1338.071-178.733a5.46,5.46,0,0,1-5.619,5.28,5.456,5.456,0,0,1-5.666-5.227,5.459,5.459,0,0,1,5.619-5.279A5.457,5.457,0,0,1,1338.071-178.733Z" transform="translate(-696.962 290.352)"/>
        <path id="Path_123" data-name="Path 123" class="cls-2" d="M1387.22-178.956a5.459,5.459,0,0,1-5.619,5.279,5.457,5.457,0,0,1-5.666-5.227,5.46,5.46,0,0,1,5.619-5.28A5.457,5.457,0,0,1,1387.22-178.956Z" transform="translate(-718.717 290.444)"/>
        <path id="Path_124" data-name="Path 124" class="cls-2" d="M1436.369-179.179a5.459,5.459,0,0,1-5.619,5.279,5.456,5.456,0,0,1-5.666-5.227,5.46,5.46,0,0,1,5.619-5.28A5.457,5.457,0,0,1,1436.369-179.179Z" transform="translate(-740.472 290.536)"/>
        <path id="Path_125" data-name="Path 125" class="cls-2" d="M1485.518-179.4a5.459,5.459,0,0,1-5.619,5.279,5.457,5.457,0,0,1-5.666-5.227,5.46,5.46,0,0,1,5.619-5.28A5.457,5.457,0,0,1,1485.518-179.4Z" transform="translate(-765.582 290.629)"/>
        <ellipse id="Ellipse_28" data-name="Ellipse 28" class="cls-2" cx="5.642" cy="5.253" rx="5.642" ry="5.253" transform="translate(736.84 105.896) rotate(-0.261)"/>
        <path id="Path_126" data-name="Path 126" class="cls-2" d="M1583.816-179.847a5.459,5.459,0,0,1-5.619,5.28,5.457,5.457,0,0,1-5.666-5.227,5.459,5.459,0,0,1,5.619-5.279A5.456,5.456,0,0,1,1583.816-179.847Z" transform="translate(-807.455 290.813)"/>
        <path id="Path_127" data-name="Path 127" class="cls-2" d="M1632.965-180.07a5.46,5.46,0,0,1-5.62,5.28,5.457,5.457,0,0,1-5.666-5.227,5.459,5.459,0,0,1,5.619-5.279A5.457,5.457,0,0,1,1632.965-180.07Z" transform="translate(-828.392 290.906)"/>
        <ellipse id="Ellipse_29" data-name="Ellipse 29" class="cls-2" cx="5.642" cy="5.253" rx="5.642" ry="5.253" transform="matrix(1, -0.005, 0.005, 1, 821.477, 105.504)"/>
        <path id="Path_144" data-name="Path 144" class="cls-2" d="M1338.26-136.864a5.459,5.459,0,0,1-5.619,5.279,5.457,5.457,0,0,1-5.666-5.227,5.461,5.461,0,0,1,5.62-5.28A5.458,5.458,0,0,1,1338.26-136.864Z" transform="translate(-695.732 267.907)"/>
        <path id="Path_145" data-name="Path 145" class="cls-2" d="M1387.409-137.086a5.46,5.46,0,0,1-5.619,5.28,5.458,5.458,0,0,1-5.666-5.227,5.46,5.46,0,0,1,5.62-5.279A5.457,5.457,0,0,1,1387.409-137.086Z" transform="translate(-717.488 268.013)"/>
        <path id="Path_146" data-name="Path 146" class="cls-2" d="M1436.558-137.309a5.46,5.46,0,0,1-5.619,5.28,5.458,5.458,0,0,1-5.666-5.227,5.46,5.46,0,0,1,5.62-5.279A5.456,5.456,0,0,1,1436.558-137.309Z" transform="translate(-739.243 268.12)"/>
        <path id="Path_147" data-name="Path 147" class="cls-2" d="M1485.708-137.532a5.46,5.46,0,0,1-5.619,5.28,5.456,5.456,0,0,1-5.665-5.227,5.459,5.459,0,0,1,5.619-5.28A5.457,5.457,0,0,1,1485.708-137.532Z" transform="translate(-764.35 268.227)"/>
        <path id="Path_148" data-name="Path 148" class="cls-2" d="M1534.857-137.755a5.459,5.459,0,0,1-5.619,5.28,5.457,5.457,0,0,1-5.666-5.227,5.46,5.46,0,0,1,5.619-5.28A5.456,5.456,0,0,1,1534.857-137.755Z" transform="translate(-785.287 268.333)"/>
        <ellipse id="Ellipse_32" data-name="Ellipse 32" class="cls-2" cx="5.642" cy="5.253" rx="5.642" ry="5.253" transform="translate(766.474 125.263) rotate(-0.259)"/>
        <ellipse id="Ellipse_33" data-name="Ellipse 33" class="cls-2" cx="5.642" cy="5.253" rx="5.642" ry="5.253" transform="matrix(1, -0.005, 0.005, 1, 794.687, 125.147)"/>
        <ellipse id="Ellipse_34" data-name="Ellipse 34" class="cls-2" cx="5.642" cy="5.253" rx="5.642" ry="5.253" transform="translate(822.899 125.031) rotate(-0.261)"/>
        <ellipse id="Ellipse_37" data-name="Ellipse 37" class="cls-2" cx="5.642" cy="5.253" rx="5.642" ry="5.253" transform="translate(631.325 147.659) rotate(-0.261)"/>
        <path id="Path_165" data-name="Path 165" class="cls-2" d="M1387.6-95.217a5.459,5.459,0,0,1-5.619,5.279,5.457,5.457,0,0,1-5.666-5.227,5.46,5.46,0,0,1,5.619-5.28A5.457,5.457,0,0,1,1387.6-95.217Z" transform="translate(-717.572 247.959)"/>
        <ellipse id="Ellipse_38" data-name="Ellipse 38" class="cls-2" cx="5.642" cy="5.253" rx="5.642" ry="5.253" transform="translate(686.112 147.426) rotate(-0.259)"/>
        <path id="Path_166" data-name="Path 166" class="cls-2" d="M1485.9-95.663a5.459,5.459,0,0,1-5.619,5.279,5.457,5.457,0,0,1-5.666-5.227,5.46,5.46,0,0,1,5.62-5.28A5.458,5.458,0,0,1,1485.9-95.663Z" transform="translate(-764.431 248.172)"/>
        <path id="Path_167" data-name="Path 167" class="cls-2" d="M1535.046-95.886a5.46,5.46,0,0,1-5.619,5.28,5.458,5.458,0,0,1-5.666-5.228,5.461,5.461,0,0,1,5.62-5.28A5.458,5.458,0,0,1,1535.046-95.886Z" transform="translate(-785.367 248.279)"/>
        <ellipse id="Ellipse_39" data-name="Ellipse 39" class="cls-2" cx="5.642" cy="5.253" rx="5.642" ry="5.253" transform="translate(766.583 147.078) rotate(-0.259)"/>
        <ellipse id="Ellipse_40" data-name="Ellipse 40" class="cls-2" cx="5.642" cy="5.253" rx="5.642" ry="5.253" transform="translate(794.796 146.962) rotate(-0.261)"/>
        <ellipse id="Ellipse_41" data-name="Ellipse 41" class="cls-2" cx="5.642" cy="5.253" rx="5.642" ry="5.253" transform="translate(823.008 146.846) rotate(-0.262)"/>
        <ellipse id="Ellipse_44" data-name="Ellipse 44" class="cls-2" cx="5.642" cy="5.253" rx="5.642" ry="5.253" transform="translate(631.431 169.474) rotate(-0.261)"/>
        <path id="Path_184" data-name="Path 184" class="cls-2" d="M1387.789-53.347a5.46,5.46,0,0,1-5.619,5.28A5.458,5.458,0,0,1,1376.5-53.3a5.459,5.459,0,0,1,5.619-5.279A5.457,5.457,0,0,1,1387.789-53.347Z" transform="translate(-717.656 227.904)"/>
        <path id="Path_185" data-name="Path 185" class="cls-2" d="M1436.938-53.57a5.46,5.46,0,0,1-5.619,5.28,5.458,5.458,0,0,1-5.666-5.227,5.459,5.459,0,0,1,5.619-5.279A5.457,5.457,0,0,1,1436.938-53.57Z" transform="translate(-739.411 228.011)"/>
        <path id="Path_186" data-name="Path 186" class="cls-2" d="M1486.087-53.793a5.46,5.46,0,0,1-5.619,5.28,5.457,5.457,0,0,1-5.666-5.227,5.46,5.46,0,0,1,5.619-5.28A5.457,5.457,0,0,1,1486.087-53.793Z" transform="translate(-764.512 228.118)"/>
        <path id="Path_187" data-name="Path 187" class="cls-2" d="M1535.236-54.016a5.459,5.459,0,0,1-5.619,5.279,5.457,5.457,0,0,1-5.666-5.227,5.46,5.46,0,0,1,5.62-5.28A5.457,5.457,0,0,1,1535.236-54.016Z" transform="translate(-785.448 228.225)"/>
        <path id="Path_188" data-name="Path 188" class="cls-2" d="M1584.385-54.239a5.459,5.459,0,0,1-5.619,5.279,5.457,5.457,0,0,1-5.666-5.227,5.461,5.461,0,0,1,5.619-5.28A5.458,5.458,0,0,1,1584.385-54.239Z" transform="translate(-806.385 228.332)"/>
        <path id="Path_189" data-name="Path 189" class="cls-2" d="M1633.534-54.462a5.459,5.459,0,0,1-5.619,5.279,5.458,5.458,0,0,1-5.666-5.227,5.461,5.461,0,0,1,5.62-5.28A5.458,5.458,0,0,1,1633.534-54.462Z" transform="translate(-827.321 228.438)"/>
        <path id="Path_190" data-name="Path 190" class="cls-2" d="M1682.683-54.684a5.46,5.46,0,0,1-5.619,5.28,5.458,5.458,0,0,1-5.666-5.227,5.46,5.46,0,0,1,5.62-5.279A5.456,5.456,0,0,1,1682.683-54.684Z" transform="translate(-848.257 228.545)"/>
      </g>
    </g>
    <g id="Group_4" data-name="Group 4" transform="translate(17.08 -14.533)">
      <g id="Group_1-2" data-name="Group 1" class="cls-1" transform="translate(-456.414 175.435)">
        <path id="Path_60-2" data-name="Path 60" class="cls-2" d="M1484.948-305.01a5.46,5.46,0,0,1-5.619,5.28,5.458,5.458,0,0,1-5.666-5.227,5.459,5.459,0,0,1,5.619-5.279A5.457,5.457,0,0,1,1484.948-305.01Z" transform="translate(-765.339 342.691)"/>
        <path id="Path_61-2" data-name="Path 61" class="cls-2" d="M1534.1-305.233a5.46,5.46,0,0,1-5.619,5.28,5.457,5.457,0,0,1-5.666-5.227,5.46,5.46,0,0,1,5.619-5.28A5.457,5.457,0,0,1,1534.1-305.233Z" transform="translate(-786.276 342.784)"/>
        <path id="Path_62-2" data-name="Path 62" class="cls-2" d="M1583.246-305.456a5.459,5.459,0,0,1-5.619,5.279,5.457,5.457,0,0,1-5.666-5.227,5.46,5.46,0,0,1,5.619-5.28A5.457,5.457,0,0,1,1583.246-305.456Z" transform="translate(-807.213 342.876)"/>
        <path id="Path_63-2" data-name="Path 63" class="cls-2" d="M1632.4-305.679a5.459,5.459,0,0,1-5.619,5.279,5.457,5.457,0,0,1-5.666-5.227,5.461,5.461,0,0,1,5.62-5.28A5.457,5.457,0,0,1,1632.4-305.679Z" transform="translate(-828.149 342.969)"/>
        <path id="Path_64-2" data-name="Path 64" class="cls-2" d="M1681.544-305.9a5.46,5.46,0,0,1-5.619,5.28,5.458,5.458,0,0,1-5.666-5.227,5.461,5.461,0,0,1,5.62-5.28A5.457,5.457,0,0,1,1681.544-305.9Z" transform="translate(-849.085 343.061)"/>
        <path id="Path_81-2" data-name="Path 81" class="cls-2" d="M1485.138-263.141a5.46,5.46,0,0,1-5.619,5.279,5.457,5.457,0,0,1-5.666-5.227,5.46,5.46,0,0,1,5.619-5.28A5.458,5.458,0,0,1,1485.138-263.141Z" transform="translate(-765.421 325.337)"/>
        <path id="Path_82-2" data-name="Path 82" class="cls-2" d="M1534.287-263.364a5.46,5.46,0,0,1-5.619,5.28,5.458,5.458,0,0,1-5.666-5.228,5.46,5.46,0,0,1,5.619-5.28A5.458,5.458,0,0,1,1534.287-263.364Z" transform="translate(-786.357 325.43)"/>
        <path id="Path_83-2" data-name="Path 83" class="cls-2" d="M1583.436-263.586a5.46,5.46,0,0,1-5.619,5.28,5.458,5.458,0,0,1-5.666-5.227,5.459,5.459,0,0,1,5.619-5.279A5.457,5.457,0,0,1,1583.436-263.586Z" transform="translate(-807.293 325.522)"/>
        <path id="Path_84-2" data-name="Path 84" class="cls-2" d="M1632.585-263.809a5.46,5.46,0,0,1-5.619,5.28,5.458,5.458,0,0,1-5.666-5.227,5.46,5.46,0,0,1,5.619-5.279A5.457,5.457,0,0,1,1632.585-263.809Z" transform="translate(-828.23 325.614)"/>
        <path id="Path_85-2" data-name="Path 85" class="cls-2" d="M1681.734-264.032a5.46,5.46,0,0,1-5.619,5.28,5.457,5.457,0,0,1-5.666-5.227,5.46,5.46,0,0,1,5.619-5.28A5.457,5.457,0,0,1,1681.734-264.032Z" transform="translate(-849.166 325.707)"/>
        <path id="Path_104-2" data-name="Path 104" class="cls-2" d="M1485.328-221.271a5.461,5.461,0,0,1-5.62,5.28,5.457,5.457,0,0,1-5.665-5.227,5.459,5.459,0,0,1,5.619-5.279A5.457,5.457,0,0,1,1485.328-221.271Z" transform="translate(-765.502 307.983)"/>
        <ellipse id="Ellipse_23-2" data-name="Ellipse 23" class="cls-2" cx="5.642" cy="5.253" rx="5.642" ry="5.253" transform="translate(736.731 81.381) rotate(-0.261)"/>
        <path id="Path_105-2" data-name="Path 105" class="cls-2" d="M1583.626-221.717a5.46,5.46,0,0,1-5.62,5.279,5.457,5.457,0,0,1-5.666-5.227,5.46,5.46,0,0,1,5.619-5.28A5.458,5.458,0,0,1,1583.626-221.717Z" transform="translate(-807.374 308.168)"/>
        <path id="Path_106-2" data-name="Path 106" class="cls-2" d="M1632.775-221.94a5.46,5.46,0,0,1-5.619,5.279,5.457,5.457,0,0,1-5.666-5.227,5.46,5.46,0,0,1,5.619-5.28A5.458,5.458,0,0,1,1632.775-221.94Z" transform="translate(-828.311 308.26)"/>
        <ellipse id="Ellipse_24-2" data-name="Ellipse 24" class="cls-2" cx="5.642" cy="5.253" rx="5.642" ry="5.253" transform="matrix(1, -0.005, 0.005, 1, 821.368, 80.989)"/>
        <path id="Path_125-2" data-name="Path 125" class="cls-2" d="M1485.518-179.4a5.459,5.459,0,0,1-5.619,5.279,5.457,5.457,0,0,1-5.666-5.227,5.46,5.46,0,0,1,5.619-5.28A5.457,5.457,0,0,1,1485.518-179.4Z" transform="translate(-765.582 290.629)"/>
        <ellipse id="Ellipse_28-2" data-name="Ellipse 28" class="cls-2" cx="5.642" cy="5.253" rx="5.642" ry="5.253" transform="translate(736.84 105.896) rotate(-0.261)"/>
        <path id="Path_126-2" data-name="Path 126" class="cls-2" d="M1583.816-179.847a5.459,5.459,0,0,1-5.619,5.28,5.457,5.457,0,0,1-5.666-5.227,5.459,5.459,0,0,1,5.619-5.279A5.456,5.456,0,0,1,1583.816-179.847Z" transform="translate(-807.455 290.813)"/>
        <path id="Path_127-2" data-name="Path 127" class="cls-2" d="M1632.965-180.07a5.46,5.46,0,0,1-5.62,5.28,5.457,5.457,0,0,1-5.666-5.227,5.459,5.459,0,0,1,5.619-5.279A5.457,5.457,0,0,1,1632.965-180.07Z" transform="translate(-828.392 290.906)"/>
        <ellipse id="Ellipse_29-2" data-name="Ellipse 29" class="cls-2" cx="5.642" cy="5.253" rx="5.642" ry="5.253" transform="matrix(1, -0.005, 0.005, 1, 821.477, 105.504)"/>
        <path id="Path_147-2" data-name="Path 147" class="cls-2" d="M1485.708-137.532a5.46,5.46,0,0,1-5.619,5.28,5.456,5.456,0,0,1-5.665-5.227,5.459,5.459,0,0,1,5.619-5.28A5.457,5.457,0,0,1,1485.708-137.532Z" transform="translate(-764.35 268.227)"/>
        <path id="Path_148-2" data-name="Path 148" class="cls-2" d="M1534.857-137.755a5.459,5.459,0,0,1-5.619,5.28,5.457,5.457,0,0,1-5.666-5.227,5.46,5.46,0,0,1,5.619-5.28A5.456,5.456,0,0,1,1534.857-137.755Z" transform="translate(-785.287 268.333)"/>
        <ellipse id="Ellipse_32-2" data-name="Ellipse 32" class="cls-2" cx="5.642" cy="5.253" rx="5.642" ry="5.253" transform="translate(766.474 125.263) rotate(-0.259)"/>
        <ellipse id="Ellipse_33-2" data-name="Ellipse 33" class="cls-2" cx="5.642" cy="5.253" rx="5.642" ry="5.253" transform="matrix(1, -0.005, 0.005, 1, 794.687, 125.147)"/>
        <ellipse id="Ellipse_34-2" data-name="Ellipse 34" class="cls-2" cx="5.642" cy="5.253" rx="5.642" ry="5.253" transform="translate(822.899 125.031) rotate(-0.261)"/>
        <path id="Path_166-2" data-name="Path 166" class="cls-2" d="M1485.9-95.663a5.459,5.459,0,0,1-5.619,5.279,5.457,5.457,0,0,1-5.666-5.227,5.46,5.46,0,0,1,5.62-5.28A5.458,5.458,0,0,1,1485.9-95.663Z" transform="translate(-764.431 248.172)"/>
        <path id="Path_167-2" data-name="Path 167" class="cls-2" d="M1535.046-95.886a5.46,5.46,0,0,1-5.619,5.28,5.458,5.458,0,0,1-5.666-5.228,5.461,5.461,0,0,1,5.62-5.28A5.458,5.458,0,0,1,1535.046-95.886Z" transform="translate(-785.367 248.279)"/>
        <ellipse id="Ellipse_39-2" data-name="Ellipse 39" class="cls-2" cx="5.642" cy="5.253" rx="5.642" ry="5.253" transform="translate(766.583 147.078) rotate(-0.259)"/>
        <ellipse id="Ellipse_40-2" data-name="Ellipse 40" class="cls-2" cx="5.642" cy="5.253" rx="5.642" ry="5.253" transform="translate(794.796 146.962) rotate(-0.261)"/>
        <ellipse id="Ellipse_41-2" data-name="Ellipse 41" class="cls-2" cx="5.642" cy="5.253" rx="5.642" ry="5.253" transform="translate(823.008 146.846) rotate(-0.262)"/>
        <path id="Path_186-2" data-name="Path 186" class="cls-2" d="M1486.087-53.793a5.46,5.46,0,0,1-5.619,5.28,5.457,5.457,0,0,1-5.666-5.227,5.46,5.46,0,0,1,5.619-5.28A5.457,5.457,0,0,1,1486.087-53.793Z" transform="translate(-764.512 228.118)"/>
        <path id="Path_187-2" data-name="Path 187" class="cls-2" d="M1535.236-54.016a5.459,5.459,0,0,1-5.619,5.279,5.457,5.457,0,0,1-5.666-5.227,5.46,5.46,0,0,1,5.62-5.28A5.457,5.457,0,0,1,1535.236-54.016Z" transform="translate(-785.448 228.225)"/>
        <path id="Path_188-2" data-name="Path 188" class="cls-2" d="M1584.385-54.239a5.459,5.459,0,0,1-5.619,5.279,5.457,5.457,0,0,1-5.666-5.227,5.461,5.461,0,0,1,5.619-5.28A5.458,5.458,0,0,1,1584.385-54.239Z" transform="translate(-806.385 228.332)"/>
        <path id="Path_189-2" data-name="Path 189" class="cls-2" d="M1633.534-54.462a5.459,5.459,0,0,1-5.619,5.279,5.458,5.458,0,0,1-5.666-5.227,5.461,5.461,0,0,1,5.62-5.28A5.458,5.458,0,0,1,1633.534-54.462Z" transform="translate(-827.321 228.438)"/>
        <path id="Path_190-2" data-name="Path 190" class="cls-2" d="M1682.683-54.684a5.46,5.46,0,0,1-5.619,5.28,5.458,5.458,0,0,1-5.666-5.227,5.46,5.46,0,0,1,5.62-5.279A5.456,5.456,0,0,1,1682.683-54.684Z" transform="translate(-848.257 228.545)"/>
      </g>
    </g>
  </g>
</svg>
