<?xml version="1.0" standalone="no"?>
<!DOCTYPE svg PUBLIC "-//W3C//DTD SVG 20010904//EN"
 "http://www.w3.org/TR/2001/REC-SVG-20010904/DTD/svg10.dtd">
<svg version="1.0" xmlns="http://www.w3.org/2000/svg"
 width="2000.000000pt" height="2000.000000pt" viewBox="0 0 2000.000000 2000.000000"
 preserveAspectRatio="xMidYMid meet">
<metadata>
Created by potrace 1.14, written by Peter Selinger 2001-2017
</metadata>
<g transform="translate(0.000000,2000.000000) scale(0.100000,-0.100000)"
fill="#000000" stroke="none">
<path d="M7877 18708 c-94 -9 -183 -53 -261 -128 -241 -232 -175 -622 130
-767 67 -32 87 -37 174 -41 131 -6 208 17 304 90 145 110 211 271 186 450 -24
167 -146 318 -300 373 -63 22 -153 31 -233 23z"/>
<path d="M12960 18242 c-349 -91 -467 -532 -213 -790 l53 -53 2 -440 3 -439
128 392 c70 216 129 393 130 394 1 1 31 5 65 8 117 12 217 62 300 150 209 220
149 593 -116 734 -116 62 -230 76 -352 44z"/>
<path d="M8331 16749 l-1 -406 -107 -7 c-118 -8 -287 -40 -263 -49 8 -4 194
-72 412 -151 l398 -144 112 -7 c62 -3 132 -8 156 -11 47 -6 50 0 32 68 -35
123 -188 218 -429 265 l-95 19 -103 399 c-56 220 -104 407 -107 415 -2 8 -4
-168 -5 -391z"/>
<path d="M11923 15989 c-34 -5 -72 -13 -85 -18 l-23 -9 25 -10 c14 -5 219 -80
455 -167 403 -147 438 -158 560 -176 180 -26 176 -26 165 13 -24 81 -101 156
-229 221 -190 98 -399 146 -656 152 -82 2 -178 0 -212 -6z"/>
<path d="M8165 15124 c-560 -55 -1365 -224 -1659 -349 l-39 -16 6 -107 c3 -59
15 -147 26 -197 49 -204 125 -420 146 -411 79 30 336 106 497 146 469 118
1004 206 1364 226 l122 7 6 36 c19 115 -15 473 -60 629 l-15 52 -127 -1 c-70
-1 -190 -7 -267 -15z"/>
<path d="M12060 14643 c-70 -84 -218 -444 -236 -574 l-6 -45 98 -23 c55 -13
198 -56 319 -96 416 -138 853 -337 1223 -557 73 -44 140 -77 147 -74 53 20
269 440 300 584 8 39 5 42 -156 151 -249 166 -721 382 -1184 541 -173 59 -422
130 -457 130 -9 0 -31 -17 -48 -37z"/>
<path d="M4395 13937 c-39 -18 -115 -101 -95 -104 129 -14 262 -47 294 -73 53
-43 87 -81 93 -102 7 -29 10 -198 3 -198 -3 0 -5 -21 -5 -47 -1 -27 -6 -48
-13 -51 -7 -2 -12 -13 -12 -24 0 -10 -7 -26 -15 -34 -8 -9 -15 -26 -15 -40 0
-13 -4 -24 -10 -24 -5 0 -10 -8 -10 -18 0 -10 -7 -27 -15 -38 -8 -10 -15 -27
-15 -36 0 -10 -4 -18 -10 -18 -5 0 -10 -8 -10 -19 0 -10 -7 -24 -15 -31 -8 -7
-15 -21 -15 -31 0 -11 -4 -19 -10 -19 -5 0 -10 -6 -10 -14 0 -15 -30 -77 -41
-86 -4 -3 -9 -15 -13 -27 -4 -13 -12 -23 -17 -23 -5 0 -9 -9 -9 -20 0 -11 -4
-20 -10 -20 -5 0 -10 -5 -10 -10 0 -6 -11 -21 -25 -34 -14 -13 -25 -27 -25
-31 0 -10 -37 -55 -42 -50 -2 2 -17 -7 -32 -20 -16 -14 -38 -25 -48 -25 -11 0
-29 -5 -41 -12 -27 -15 -197 -22 -216 -9 -13 8 -13 28 3 148 21 166 75 445
110 566 15 48 26 92 26 99 0 17 -150 4 -251 -22 -345 -88 -613 -358 -711 -718
-31 -114 -31 -352 0 -476 71 -282 265 -522 527 -653 69 -35 172 -70 235 -81
l44 -7 17 -100 c39 -218 94 -336 175 -375 45 -22 304 -80 358 -80 l28 0 -6
-67 c-28 -308 -39 -1493 -18 -1813 14 -209 43 -291 143 -404 64 -73 142 -118
282 -165 514 -171 2103 -468 3346 -626 l54 -7 -7 -126 c-3 -69 -8 -127 -9
-128 -1 -2 -101 3 -222 11 -373 24 -809 36 -950 26 -137 -10 -265 -30 -265
-41 0 -11 165 -47 315 -69 72 -11 238 -25 370 -31 250 -11 461 -31 580 -55 39
-7 91 -17 118 -20 l47 -7 0 -82 c0 -131 36 -166 227 -221 234 -69 768 -125
1186 -125 116 0 132 -2 176 -25 50 -25 148 -46 506 -109 l200 -36 435 -4 c385
-3 615 -13 718 -31 25 -5 32 -2 32 10 0 13 7 15 28 11 15 -3 55 -10 90 -16
100 -17 396 -138 427 -174 11 -12 46 -42 77 -65 32 -22 63 -51 69 -64 6 -12
26 -38 44 -57 17 -19 47 -73 65 -120 18 -47 42 -105 53 -128 19 -41 19 -52 8
-195 -6 -84 -18 -255 -26 -382 -15 -224 -48 -452 -82 -560 -29 -96 -83 -246
-99 -278 -34 -66 -109 -183 -145 -224 -24 -29 -47 -74 -68 -135 -65 -190 -88
-241 -270 -609 -102 -207 -202 -412 -221 -455 -130 -298 -467 -918 -530 -978
-16 -14 -278 -109 -345 -125 -22 -5 -93 -23 -157 -40 -111 -29 -150 -45 -348
-139 -131 -62 -482 -188 -740 -265 -197 -59 -576 -85 -917 -63 -222 15 -412
32 -463 41 -14 2 -56 7 -95 10 -38 4 -77 8 -85 11 -15 4 -157 21 -395 49 -66
7 -149 18 -185 24 -36 5 -83 12 -105 15 -22 4 -83 13 -135 20 -52 8 -156 23
-230 32 -183 23 -407 66 -507 96 -102 31 -186 89 -308 212 l-90 91 -43 135
c-24 74 -50 154 -59 177 -19 56 -10 216 57 939 50 543 61 626 169 1239 40 228
61 370 64 430 l2 50 115 -8 c104 -8 120 -7 170 12 208 78 384 427 419 828 11
121 10 123 -55 123 -62 0 -184 35 -235 66 l-45 28 -12 121 c-6 66 -21 158 -32
204 -19 78 -65 207 -79 223 -4 4 -110 17 -236 28 -127 11 -244 22 -262 24 -29
4 -35 0 -60 -40 -32 -51 -22 -47 -178 -74 -403 -70 -856 -221 -1245 -416 -216
-108 -346 -191 -524 -333 -308 -247 -561 -497 -743 -736 -57 -77 -173 -248
-173 -258 0 -2 46 -7 103 -10 196 -12 379 -60 572 -151 134 -64 231 -126 354
-229 l94 -79 40 48 c72 88 290 298 407 394 319 260 621 397 1025 465 50 9 102
18 116 21 24 4 30 -1 57 -50 17 -30 49 -73 72 -97 l40 -42 -20 -241 c-48 -581
-111 -1563 -136 -2116 -12 -265 22 -465 108 -640 45 -91 64 -117 142 -196 80
-79 105 -97 204 -146 62 -31 143 -64 181 -74 l68 -18 12 -57 c6 -32 30 -95 53
-141 74 -149 216 -267 395 -329 281 -96 1009 -172 2128 -221 377 -17 1684 -16
1960 0 447 27 719 61 855 107 217 74 347 206 420 427 21 65 23 68 63 78 91 24
146 44 232 88 121 61 241 180 302 297 101 194 131 357 143 760 8 292 -2 1249
-19 1698 l-9 238 50 47 c51 47 116 148 139 215 7 20 16 37 20 37 3 0 42 -9 85
-20 438 -109 1145 -106 1664 6 267 58 541 151 777 264 l141 68 -127 128 c-173
175 -285 347 -364 559 -31 83 -77 251 -77 283 0 12 -2 22 -5 22 -3 0 -44 -16
-92 -36 -331 -138 -677 -209 -1118 -230 -218 -10 -517 18 -819 76 -59 12 -110
19 -112 17 -2 -2 9 -39 25 -83 44 -122 93 -364 72 -364 -5 0 -25 14 -43 30
-18 17 -36 30 -40 30 -5 0 -8 5 -8 11 0 6 -6 17 -12 24 -28 31 -38 44 -38 51
0 4 -11 17 -25 30 -14 13 -25 30 -25 39 0 9 -11 26 -25 39 -14 13 -25 29 -25
36 0 7 -11 23 -25 36 -14 13 -25 30 -25 39 0 9 -11 26 -25 39 -22 21 -25 31
-25 95 0 79 5 89 60 111 19 7 39 17 44 21 21 19 -97 111 -165 129 -32 9 -41
18 -62 64 -128 280 -382 450 -782 525 -131 25 -317 49 -718 95 -164 19 -301
37 -305 41 -4 4 -9 68 -11 142 l-3 136 103 -6 c457 -28 1731 -32 2269 -7 520
25 672 53 819 151 159 106 236 280 361 824 62 265 175 828 228 1130 21 121 43
220 48 220 5 -1 75 -5 155 -9 80 -5 169 -5 197 -1 66 9 121 46 173 115 42 56
122 208 153 291 15 39 21 45 41 41 37 -7 226 17 306 39 350 96 626 394 701
758 16 79 19 120 15 231 -6 165 -29 257 -96 395 -129 263 -349 446 -630 524
l-72 20 8 -97 c10 -117 10 -666 0 -704 -7 -26 -9 -26 -65 -21 -31 3 -58 10
-60 15 -2 4 -11 8 -20 8 -42 0 -162 81 -162 109 0 7 -11 24 -25 39 -14 15 -25
32 -25 39 0 7 -4 13 -10 13 -5 0 -10 8 -10 19 0 10 -7 32 -15 47 -8 16 -15 37
-15 47 0 9 -4 17 -10 17 -5 0 -10 12 -10 28 -1 15 -7 38 -15 52 -8 14 -14 37
-15 53 0 15 -4 27 -10 27 -5 0 -10 12 -10 28 -1 15 -7 38 -15 52 -8 14 -14 40
-15 58 0 17 -4 32 -10 32 -5 0 -10 12 -10 28 -1 15 -7 38 -15 52 -8 14 -14 37
-15 53 0 15 -6 27 -12 27 -10 0 -10 2 -1 8 7 5 12 48 14 122 3 117 9 139 52
182 9 10 24 18 32 18 8 0 15 4 15 9 0 18 115 34 228 32 l114 -2 -19 31 c-28
49 -46 60 -135 86 -81 24 -311 74 -340 74 -12 0 -17 -38 -27 -202 -29 -483
-111 -1323 -176 -1811 -73 -539 -106 -741 -126 -759 -12 -10 -19 -30 -19 -53
0 -32 -3 -36 -22 -33 -17 2 -24 -3 -26 -19 -2 -13 -8 -23 -13 -23 -5 0 -9 -9
-9 -20 0 -11 -7 -23 -15 -26 -9 -4 -15 -19 -15 -41 0 -23 -8 -42 -25 -59 -14
-14 -25 -31 -25 -39 0 -8 -4 -15 -10 -15 -5 0 -10 -19 -10 -42 0 -24 -7 -52
-15 -62 -8 -11 -15 -32 -15 -48 0 -15 -4 -28 -10 -28 -5 0 -10 -9 -10 -19 0
-11 -4 -22 -9 -25 -5 -3 -12 -22 -15 -41 -4 -19 -11 -35 -16 -35 -6 0 -10 -15
-10 -34 0 -19 -4 -37 -9 -40 -5 -4 -12 -25 -16 -49 -4 -23 -10 -44 -14 -47 -7
-6 -29 -78 -38 -125 -3 -16 -9 -32 -12 -35 -10 -8 -41 -104 -41 -127 0 -13 -3
-23 -7 -23 -5 0 -17 -29 -28 -65 -10 -36 -23 -65 -27 -65 -4 0 -8 -13 -8 -29
0 -17 -4 -32 -9 -36 -6 -3 -13 -26 -17 -51 -3 -25 -9 -43 -12 -40 -6 7 -41
-91 -42 -116 0 -10 -4 -18 -10 -18 -5 0 -10 -11 -10 -25 0 -14 -4 -25 -10 -25
-5 0 -10 -7 -10 -15 0 -31 -72 -231 -108 -299 -94 -179 -263 -278 -521 -305
-462 -50 -1766 -60 -2604 -21 -664 31 -1350 76 -1662 110 -49 5 -135 14 -190
20 -149 15 -444 48 -580 64 -1518 184 -3296 526 -3555 684 -95 58 -201 201
-229 307 -5 22 -15 105 -21 185 -6 80 -18 190 -25 245 -8 55 -15 133 -15 173
0 39 -4 72 -9 72 -4 0 -11 39 -14 88 -3 48 -10 100 -16 115 -6 16 -11 71 -11
123 0 52 -4 94 -9 94 -5 0 -12 45 -16 100 -4 55 -11 100 -16 100 -5 0 -9 43
-9 95 0 57 -4 95 -10 95 -5 0 -10 23 -10 50 0 38 -4 50 -15 50 -8 0 -15 5 -15
10 0 6 5 10 12 10 9 0 9 3 0 12 -7 7 -12 38 -12 70 0 32 -4 58 -10 58 -5 0
-10 23 -10 50 0 47 -2 50 -25 50 -23 0 -25 3 -25 49 0 29 -5 51 -12 53 -37 13
130 1673 264 2620 17 125 30 230 27 232 -3 3 -99 8 -214 11 -168 5 -216 3
-240 -8z"/>
<path d="M7701 13799 c-417 -44 -848 -229 -1181 -507 -451 -377 -747 -926
-821 -1527 -17 -142 -15 -455 5 -596 101 -720 526 -1344 1146 -1681 645 -351
1459 -339 2098 32 293 171 577 434 761 708 268 400 401 839 401 1327 0 640
-238 1210 -687 1645 -244 237 -509 399 -825 503 -274 91 -605 126 -897 96z
m549 -114 c882 -146 1563 -836 1721 -1740 26 -153 36 -439 20 -596 -105 -1019
-860 -1825 -1837 -1965 -157 -22 -430 -22 -579 1 -680 103 -1247 523 -1555
1150 -75 153 -117 266 -154 414 -55 215 -61 269 -61 556 0 298 11 388 76 619
240 852 967 1477 1834 1576 112 12 422 4 535 -15z"/>
<path d="M7885 12859 c-81 -11 -194 -39 -200 -49 -3 -5 14 -19 37 -33 115 -68
221 -224 253 -372 74 -348 -171 -689 -510 -712 -192 -13 -382 85 -485 251 -19
31 -38 56 -42 56 -3 0 -11 -21 -16 -47 -79 -368 0 -746 213 -1023 59 -76 188
-198 260 -247 386 -259 880 -244 1257 40 445 335 596 977 354 1502 -74 161
-241 358 -383 453 -222 150 -493 216 -738 181z"/>
<path d="M12100 13353 c-386 -27 -713 -151 -1003 -382 -269 -214 -473 -509
-586 -847 -172 -516 -105 -1127 174 -1589 277 -459 716 -774 1235 -887 93 -20
133 -22 345 -22 212 0 252 2 344 22 290 64 550 186 762 358 90 73 244 234 310
324 543 737 473 1779 -165 2447 -325 341 -729 535 -1191 573 -118 9 -134 10
-225 3z m327 -118 c188 -27 344 -75 514 -161 765 -382 1149 -1249 925 -2087
-33 -122 -93 -268 -161 -388 -397 -701 -1214 -1015 -1977 -759 -272 91 -553
279 -744 497 -424 486 -562 1159 -362 1768 16 50 58 149 94 220 232 469 666
802 1163 895 58 11 122 21 141 23 90 10 315 5 407 -8z"/>
<path d="M12235 12620 c-103 -11 -275 -61 -275 -80 0 -4 14 -13 32 -21 49 -20
142 -118 176 -184 42 -83 53 -132 53 -228 0 -224 -137 -408 -346 -463 -130
-35 -287 6 -388 100 -21 20 -40 36 -43 36 -2 0 -4 -36 -4 -79 0 -288 111 -548
313 -738 85 -79 139 -116 240 -163 430 -201 937 -22 1146 405 83 169 106 283
98 490 -6 162 -31 266 -98 401 -172 350 -539 563 -904 524z"/>
<path d="M11062 9152 c-6 -5 -27 -34 -46 -65 -101 -167 -258 -280 -471 -339
-69 -19 -105 -22 -260 -22 -164 0 -189 2 -279 27 -115 31 -240 89 -316 146
-30 23 -62 41 -71 41 -29 0 -61 -34 -61 -65 0 -77 266 -216 498 -261 110 -21
330 -24 434 -5 265 48 479 182 613 383 55 84 62 107 39 137 -20 27 -57 37 -80
23z"/>
<path d="M16853 8425 c-131 -23 -250 -67 -406 -149 -81 -42 -147 -79 -147 -81
0 -2 24 4 54 15 137 47 208 55 480 55 199 0 260 -3 264 -12 2 -9 24 -13 63
-13 32 0 59 -4 59 -10 0 -5 18 -13 40 -16 22 -4 40 -10 40 -15 0 -5 11 -9 25
-9 14 0 25 -4 25 -9 0 -5 11 -12 25 -15 14 -4 25 -11 25 -16 0 -6 8 -10 17
-10 9 0 14 -3 10 -6 -3 -3 5 -16 19 -29 13 -12 24 -28 24 -34 0 -7 11 -27 25
-46 33 -43 42 -93 22 -131 -25 -49 -93 -104 -293 -238 -331 -222 -495 -339
-563 -402 -51 -48 -53 -51 -63 -124 -20 -142 8 -514 45 -602 11 -25 33 -44 88
-75 78 -44 331 -159 365 -165 10 -1 22 -7 26 -13 11 -15 241 -12 246 3 2 7 17
12 33 12 17 0 28 4 25 9 -3 5 5 12 19 15 14 4 25 11 25 16 0 6 9 10 21 10 11
0 33 12 48 27 l28 28 -151 63 c-201 84 -387 176 -424 210 -33 31 -44 71 -63
223 -14 109 -18 407 -6 461 4 21 21 51 38 68 54 53 257 200 524 378 372 248
402 282 340 388 -54 92 -212 174 -435 226 -114 26 -418 34 -537 13z"/>
<path d="M6385 7098 c22 -11 54 -33 71 -48 20 -17 49 -30 75 -33 86 -12 291
-28 296 -23 9 8 -42 53 -87 76 -33 17 -77 24 -208 36 -205 17 -195 17 -147 -8z"/>
<path d="M18428 6847 c-67 -35 -138 -73 -156 -84 l-33 -20 42 -6 c51 -7 90
-42 121 -111 21 -46 23 -65 22 -201 0 -133 -4 -160 -28 -240 -32 -107 -115
-281 -184 -385 -68 -102 -176 -224 -256 -288 -36 -30 -66 -56 -66 -59 0 -5 80
38 200 107 225 130 415 338 536 585 95 196 129 334 123 505 -4 91 -8 113 -33
163 -17 37 -40 66 -60 78 -53 33 -92 25 -228 -44z"/>
<path d="M3040 3880 c-205 -39 -488 -119 -509 -144 -34 -41 -104 -206 -304
-721 -68 -175 -112 -254 -159 -288 -31 -23 -139 -30 -146 -9 -2 7 -12 12 -23
12 -10 0 -19 5 -19 10 0 6 -7 10 -15 10 -9 0 -18 7 -21 15 -4 8 -12 15 -20 15
-7 0 -16 11 -20 25 -3 14 -12 25 -18 25 -7 0 -19 11 -26 25 -7 14 -17 25 -21
25 -4 0 -10 11 -13 25 -4 14 -11 25 -16 25 -6 0 -10 6 -10 13 0 7 -11 35 -24
63 -57 120 -101 281 -122 454 l-8 65 -7 -90 c-26 -343 2 -573 94 -792 67 -159
159 -272 261 -319 116 -54 172 -18 250 165 18 42 88 213 154 381 153 385 185
449 233 472 45 23 342 102 477 128 149 29 175 27 233 -16 55 -40 170 -161 267
-280 36 -45 71 -80 78 -77 6 2 14 22 18 44 3 21 11 39 16 39 6 0 10 23 10 50
0 28 5 50 10 50 6 0 10 16 10 35 0 19 -4 35 -10 35 -5 0 -10 13 -10 29 0 16
-7 36 -15 45 -8 8 -15 24 -15 35 0 12 -4 21 -8 21 -5 0 -17 16 -28 35 -10 19
-22 35 -26 35 -5 0 -8 7 -8 15 0 8 -4 15 -9 15 -5 0 -13 9 -16 21 -9 28 -32
56 -139 166 -49 51 -102 99 -118 105 -15 7 -28 16 -28 20 0 13 -78 7 -180 -12z"/>
<path d="M4663 3120 c-63 -254 -186 -455 -384 -626 -86 -74 -190 -148 -269
-190 -30 -16 -61 -35 -68 -41 -7 -7 -20 -13 -28 -13 -8 0 -14 -4 -14 -10 0 -5
-11 -10 -25 -10 -14 0 -25 -4 -25 -10 0 -5 -11 -12 -25 -16 -14 -3 -25 -10
-25 -15 0 -5 -16 -9 -35 -9 -19 0 -35 -4 -35 -10 0 -5 -18 -13 -40 -16 -22 -4
-40 -10 -40 -15 0 -5 -34 -9 -75 -9 -41 0 -75 4 -75 9 0 5 -10 13 -22 17 -12
4 -41 25 -64 48 l-41 41 -13 -188 c-15 -210 -12 -230 38 -263 121 -82 432 -3
703 178 107 71 258 212 330 308 129 171 213 405 238 660 16 165 23 270 20 270
-2 0 -14 -40 -26 -90z"/>
</g>
</svg>
